#!OML:ASF X:\für Bonn\!DataBase\2005_08_11_Bastian_Final\c3d\Bastian.ASF
:FULLY-SPECIFIED
:DEGREES
94
root -2.2227 17.3948 -6.96793 178.151 -55.1642 -187.973
lowerback 9.5029 -5.28774 -4.21764
upperback -0.502993 -7.57997 -0.636515
thorax -5.37385 -3.63636 2.71177
lowerneck 7.00123 -17.4099 -7.22923
upperneck -10.8698 -23.2774 15.3304
head -1.66337 -12.1796 5.97032
rclavicle -8.94531e-016 1.23246e-014
rhumerus -152.503 -151.446 156.482
rradius 112.46
rwrist -123.908
rhand 41.5321 17.0755
rfingers 7.12502
rthumb 63.6524 7.80344
lclavicle -8.94531e-016 1.23246e-014
lhumerus 87.2468 3.85169 47.8503
lradius 82.2906
lwrist 206.375
lhand -3.62789 49.259
lfingers 7.12502
lthumb 22.1113 78.0146
rfemur -12.0019 -10.7294 2.37356
rtibia 48.0421
rfoot -10.9892 -1.26529
rtoes -16.7428
lfemur 15.0155 -2.58761 -14.9537
ltibia 19.9088
lfoot -7.80595 -14.8605
ltoes -36.0497
95
root -2.20714 17.4747 -7.03413 178.546 -55.4623 -188.393
lowerback 9.57368 -5.33832 -4.14715
upperback -0.55306 -7.64915 -0.706837
thorax -5.48057 -3.66902 2.62103
lowerneck 6.67218 -17.3431 -7.36322
upperneck -10.6646 -23.1987 15.3359
head -1.54299 -12.1241 5.94023
rclavicle 5.86912e-014 -5.96354e-015
rhumerus -151.296 -151.066 156.198
rradius 110.425
rwrist -123.842
rhand 43.3023 17.0553
rfingers 7.12502
rthumb 65.0695 9.99455
lclavicle 5.86912e-014 -5.96354e-015
lhumerus 87.7486 3.79661 48.3622
lradius 81.9144
lwrist 205.744
lhand -3.625 50.1804
lfingers 7.12502
lthumb 22.114 78.9358
rfemur -11.3661 -10.5446 2.37328
rtibia 47.0846
rfoot -10.3725 -1.56261
rtoes -16.448
lfemur 14.8709 -2.74944 -14.9892
ltibia 19.761
lfoot -6.29054 -14.8737
ltoes -37.0572
96
root -2.18846 17.5408 -7.09797 178.982 -55.7419 -188.822
lowerback 9.58418 -5.38947 -4.10684
upperback -0.577638 -7.71688 -0.749778
thorax -5.51919 -3.7026 2.56626
lowerneck 6.36213 -17.2584 -7.48643
upperneck -10.5624 -23.0865 15.364
head -1.45828 -12.056 5.92635
rclavicle -4.67144e-015 1.98785e-014
rhumerus -149.891 -150.668 155.865
rradius 108.114
rwrist -123.842
rhand 44.9533 16.9861
rfingers 7.12502
rthumb 66.3512 12.2326
lclavicle -4.67144e-015 1.98785e-014
lhumerus 88.3199 3.73308 48.8938
lradius 81.2416
lwrist 205.397
lhand -3.79325 51.448
lfingers 7.12502
lthumb 21.9525 80.2224
rfemur -10.836 -10.3831 2.37472
rtibia 46.1845
rfoot -9.73046 -1.84642
rtoes -16.2158
lfemur 14.5316 -2.88448 -15.0087
ltibia 19.9091
lfoot -4.79921 -14.8716
ltoes -37.7222
97
root -2.17137 17.6264 -7.16229 179.37 -55.9674 -189.231
lowerback 9.64951 -5.42788 -4.06206
upperback -0.614921 -7.76992 -0.785869
thorax -5.60282 -3.72713 2.52147
lowerneck 6.10039 -17.161 -7.66645
upperneck -10.4318 -22.9643 15.4284
head -1.36287 -11.9834 5.9321
rclavicle 9.323e-014 1.59028e-015
rhumerus -148.306 -150.375 155.432
rradius 105.601
rwrist -123.725
rhand 45.901 17.0647
rfingers 7.12502
rthumb 67.0669 13.7547
lclavicle 9.323e-014 1.59028e-015
lhumerus 88.9042 3.55461 49.4862
lradius 80.2561
lwrist 205.25
lhand -4.21353 52.9945
lfingers 7.12502
lthumb 21.5489 81.8157
rfemur -10.2154 -10.1147 2.40803
rtibia 45.1883
rfoot -9.04937 -2.14272
rtoes -15.9409
lfemur 14.1808 -2.9755 -15.0274
ltibia 20.1129
lfoot -3.25893 -14.8819
ltoes -38.5239
98
root -2.15276 17.7139 -7.22639 179.776 -56.1715 -189.665
lowerback 9.72075 -5.47227 -4.07558
upperback -0.645375 -7.83579 -0.792418
thorax -5.67003 -3.75641 2.54038
lowerneck 5.7772 -17.0662 -7.87647
upperneck -10.2599 -22.8457 15.4467
head -1.24788 -11.9061 5.92042
rclavicle 4.88016e-014 7.15625e-015
rhumerus -146.483 -150.159 154.892
rradius 102.89
rwrist -123.487
rhand 46.2226 17.4573
rfingers 7.12502
rthumb 67.3061 14.6584
lclavicle 4.88016e-014 7.15625e-015
lhumerus 89.532 3.37961 50.0981
lradius 78.9526
lwrist 205.266
lhand -4.61015 54.6072
lfingers 7.12502
lthumb 21.1679 83.4716
rfemur -9.59766 -9.79663 2.44622
rtibia 44.1662
rfoot -8.35579 -2.48129
rtoes -15.6901
lfemur 13.7713 -3.04429 -15.0534
ltibia 20.3632
lfoot -1.563 -14.8509
ltoes -38.8814
99
root -2.13326 17.8006 -7.28756 180.088 -56.3238 -189.97
lowerback 9.7712 -5.50945 -3.99385
upperback -0.670815 -7.87927 -0.795531
thorax -5.73376 -3.77763 2.50614
lowerneck 5.45105 -16.9869 -8.07078
upperneck -10.0672 -22.7474 15.4682
head -1.12566 -11.8391 5.90584
rclavicle 2.39039e-014 1.35174e-014
rhumerus -144.589 -150.016 154.35
rradius 99.8208
rwrist -123.172
rhand 46.684 18.2147
rfingers 7.12502
rthumb 67.6458 16.1684
lclavicle 2.39039e-014 1.35174e-014
lhumerus 90.1925 3.14557 50.6783
lradius 77.4802
lwrist 205.378
lhand -5.09904 55.9937
lfingers 7.12502
lthumb 20.6983 84.91
rfemur -8.99194 -9.47369 2.55974
rtibia 43.06
rfoot -7.57286 -2.77937
rtoes -15.2697
lfemur 13.4315 -3.06076 -15.0146
ltibia 20.4709
lfoot 0.236548 -14.6848
ltoes -39.1364
100
root -2.11306 17.8885 -7.34888 180.314 -56.4315 -190.093
lowerback 9.75337 -5.55469 -3.83885
upperback -0.716828 -7.91782 -0.747074
thorax -5.78349 -3.79782 2.47851
lowerneck 5.16938 -16.8899 -8.29362
upperneck -9.90374 -22.6254 15.5099
head -1.01625 -11.7619 5.90835
rclavicle -5.68524e-014 -2.3059e-014
rhumerus -142.642 -149.961 153.871
rradius 96.3824
rwrist -123.018
rhand 47.2812 19.2254
rfingers 7.12502
rthumb 68.0793 18.1889
lclavicle -5.68524e-014 -2.3059e-014
lhumerus 90.8701 2.9285 51.2352
lradius 75.8094
lwrist 205.533
lhand -5.59422 56.8283
lfingers 7.12502
lthumb 20.2224 85.7957
rfemur -8.47073 -9.1238 2.80574
rtibia 41.9411
rfoot -6.75392 -3.07866
rtoes -15.058
lfemur 13.0135 -2.9831 -14.8504
ltibia 20.5775
lfoot 2.09631 -14.4865
ltoes -39.3278
101
root -2.09192 17.9778 -7.40954 180.505 -56.5402 -190.157
lowerback 9.71633 -5.60828 -3.64546
upperback -0.762575 -7.96241 -0.704209
thorax -5.82788 -3.8226 2.42308
lowerneck 4.87594 -16.8009 -8.48835
upperneck -9.68381 -22.5146 15.5232
head -0.894072 -11.6883 5.89573
rclavicle -9.74045e-015 1.19271e-014
rhumerus -140.707 -149.973 153.447
rradius 92.6828
rwrist -122.871
rhand 47.3111 20.2453
rfingers 7.12502
rthumb 68.1009 19.2605
lclavicle -9.74045e-015 1.19271e-014
lhumerus 91.6461 2.69188 51.6743
lradius 73.9284
lwrist 205.611
lhand -5.94677 57.325
lfingers 7.12502
lthumb 19.8835 86.3279
rfemur -7.96482 -8.57872 3.13528
rtibia 40.8183
rfoot -5.87761 -3.57767
rtoes -14.6385
lfemur 12.5831 -2.94337 -14.67
ltibia 20.6508
lfoot 3.99391 -14.1402
ltoes -39.3402
